g Body1

v 6.113809 6.360653 2.500000
v 2.676681 8.406661 2.500000
v 1.653677 6.688097 2.500000
v 5.090805 4.642089 2.500000
v 2.247040 8.662412 3.500000
v 1.224036 6.943848 3.500000
v 2.247040 8.662412 4.000000
v 1.224036 6.943848 4.000000
v 2.676681 8.406661 5.000000
v 1.653677 6.688097 5.000000
v 6.113809 6.360653 5.000000
v 5.090805 4.642089 5.000000
v 6.543450 6.104902 4.000000
v 5.520446 4.386338 4.000000
v 6.543450 6.104902 3.500000
v 5.520446 4.386338 3.500000
v 0.000000 10.000000 2.499361
v 3.762535 7.760288 0.233704
v 2.932481 7.529261 0.000000
v 0.000000 7.529261 0.000000
v 0.000000 10.000000 4.998723
v 2.247040 8.662412 7.000000
v 6.973091 5.849151 7.000000
v 8.592821 4.884980 5.044077
v 8.592821 4.884980 1.010540
v 0.000000 5.058522 0.000000
v 0.000000 0.000000 2.500000
v 0.000000 0.000000 5.000000
v 0.000000 4.973470 6.966373
v 2.173349 1.235539 0.000000
v 0.049712 4.971078 7.000000
v 2.173349 1.235539 7.000000
v 5.277087 3.000000 7.000000
v 5.451105 3.098929 0.000000
vt -4.000000 -0.000000 0.000000
vt -0.000000 0.000000 0.000000
vt -4.000000 2.000000 0.000000
vt 0.000000 2.000000 0.000000
vt -1.118034 0.000000 0.000000
vt -0.000000 0.000000 0.000000
vt -1.118034 2.000000 0.000000
vt 0.000000 2.000000 0.000000
vt -0.500000 0.000000 0.000000
vt -0.000000 -0.000000 0.000000
vt -0.500000 2.000000 0.000000
vt 0.000000 2.000000 0.000000
vt -1.118034 -0.000000 0.000000
vt -0.000000 -0.000000 0.000000
vt -1.118034 2.000000 0.000000
vt 0.000000 2.000000 0.000000
vt -4.000000 0.000000 0.000000
vt -0.000000 0.000000 0.000000
vt -4.000000 2.000000 0.000000
vt 0.000000 2.000000 0.000000
vt -1.118034 0.000000 0.000000
vt -0.000000 0.000000 0.000000
vt -1.118034 2.000000 0.000000
vt -0.000000 2.000000 0.000000
vt -0.500000 0.000000 0.000000
vt -0.000000 0.000000 0.000000
vt -0.500000 2.000000 0.000000
vt -0.000000 2.000000 0.000000
vt -1.118034 -0.000000 0.000000
vt -0.000000 -0.000000 0.000000
vt -1.118034 2.000000 0.000000
vt -0.000000 2.000000 0.000000
vt 1.250000 -2.000000 0.000000
vt 0.250000 2.500000 0.000000
vt 0.250000 -2.500000 0.000000
vt -0.250000 2.500000 0.000000
vt -0.250000 -2.500000 0.000000
vt -1.250000 -2.000000 0.000000
vt -1.250000 2.000000 0.000000
vt 1.250000 2.000000 0.000000
vt -3.185830 3.762535 0.000000
vt -3.514450 2.932481 0.000000
vt 0.000000 0.000000 0.000000
vt -3.514450 0.000000 0.000000
vt 2.884980 2.500000 0.000000
vt 5.621304 0.233704 0.000000
vt 6.884980 2.500000 0.000000
vt 10.000000 2.499361 0.000000
vt 7.384980 3.500000 0.000000
vt 10.000000 4.998723 0.000000
vt 7.384980 4.000000 0.000000
vt 6.884980 5.000000 0.000000
vt 7.384980 7.000000 0.000000
vt 2.884980 5.000000 0.000000
vt 1.884980 7.000000 0.000000
vt 0.000000 5.044077 0.000000
vt 0.000000 1.010540 0.000000
vt 2.384980 3.500000 0.000000
vt 2.384980 4.000000 0.000000
vt 2.470739 0.000000 0.000000
vt 4.941478 0.000000 0.000000
vt -0.000000 2.499361 0.000000
vt 5.026530 6.966373 0.000000
vt -0.000000 4.998723 0.000000
vt 10.000000 2.500000 0.000000
vt 10.000000 5.000000 0.000000
vt -0.000000 0.000000 0.000000
vt -3.535534 4.397572 0.000000
vt -3.535534 -0.000000 0.000000
vt -0.000000 0.000000 0.000000
vt -3.237607 4.319207 0.000000
vt -3.292938 0.000000 0.000000
vt -3.292938 4.295835 0.000000
vt 2.676681 0.849151 0.000000
vt -2.049371 3.662412 0.000000
vt 0.980676 -2.000000 0.000000
vt -4.246699 -0.028922 0.000000
vt -2.123062 -3.764461 0.000000
vt 0.000000 4.296986 0.000000
vt -0.053830 4.323633 0.000000
vt -0.000000 -0.000000 0.000000
vt -3.201562 -0.000000 0.000000
vt -0.000000 5.096205 0.000000
vt -0.867835 4.886821 0.000000
vt -0.000000 -0.000000 0.000000
vt -3.752539 -0.000000 0.000000
vt 0.000000 5.000000 0.000000
vt 0.000000 2.500000 0.000000
vt 6.070226 7.000000 0.000000
vt 2.500000 0.000000 0.000000
vt 6.270399 0.000000 0.000000
vt 9.884311 1.010540 0.000000
vt 9.884311 5.044077 0.000000
vt 2.500000 7.000000 0.000000
vt 0.000000 3.315734 0.000000
vt -2.716392 0.000000 0.000000
vt 0.000000 0.000000 0.000000
vt 4.296410 2.529261 0.000000
vt 1.363929 2.529261 0.000000
vt 4.296410 0.058522 0.000000
vt 2.123062 -3.764461 0.000000
vt -1.154695 -1.901071 0.000000
vn -0.000000 0.000000 1.000000
vn -0.000000 0.000000 1.000000
vn -0.000000 0.000000 1.000000
vn -0.000000 0.000000 1.000000
vn 0.768565 -0.457501 0.447214
vn 0.768565 -0.457501 0.447214
vn 0.768565 -0.457501 0.447214
vn 0.768565 -0.457501 0.447214
vn 0.859282 -0.511502 -0.000000
vn 0.859282 -0.511502 -0.000000
vn 0.859282 -0.511502 -0.000000
vn 0.859282 -0.511502 -0.000000
vn 0.768565 -0.457501 -0.447214
vn 0.768565 -0.457501 -0.447214
vn 0.768565 -0.457501 -0.447214
vn 0.768565 -0.457501 -0.447214
vn -0.000000 -0.000000 -1.000000
vn -0.000000 -0.000000 -1.000000
vn -0.000000 -0.000000 -1.000000
vn -0.000000 -0.000000 -1.000000
vn -0.768565 0.457501 -0.447214
vn -0.768565 0.457501 -0.447214
vn -0.768565 0.457501 -0.447214
vn -0.768565 0.457501 -0.447214
vn -0.859282 0.511502 -0.000000
vn -0.859282 0.511502 -0.000000
vn -0.859282 0.511502 -0.000000
vn -0.859282 0.511502 -0.000000
vn -0.768565 0.457501 0.447214
vn -0.768565 0.457501 0.447214
vn -0.768565 0.457501 0.447214
vn -0.768565 0.457501 0.447214
vn 0.511502 0.859282 -0.000000
vn 0.511502 0.859282 -0.000000
vn 0.511502 0.859282 -0.000000
vn 0.511502 0.859282 -0.000000
vn 0.511502 0.859282 -0.000000
vn 0.511502 0.859282 -0.000000
vn 0.511502 0.859282 -0.000000
vn 0.511502 0.859282 -0.000000
vn -0.000000 0.711167 -0.703023
vn -0.000000 0.711167 -0.703023
vn -0.000000 0.711167 -0.703023
vn -0.000000 0.711167 -0.703023
vn 0.511502 0.859282 -0.000000
vn 0.511502 0.859282 -0.000000
vn 0.511502 0.859282 -0.000000
vn 0.511502 0.859282 -0.000000
vn 0.511502 0.859282 -0.000000
vn 0.511502 0.859282 -0.000000
vn 0.511502 0.859282 -0.000000
vn 0.511502 0.859282 -0.000000
vn 0.511502 0.859282 -0.000000
vn 0.511502 0.859282 -0.000000
vn 0.511502 0.859282 -0.000000
vn 0.511502 0.859282 -0.000000
vn 0.511502 0.859282 -0.000000
vn 0.511502 0.859282 -0.000000
vn 0.511502 0.859282 -0.000000
vn -1.000000 0.000000 0.000000
vn -1.000000 0.000000 0.000000
vn -1.000000 0.000000 0.000000
vn -1.000000 0.000000 0.000000
vn -1.000000 0.000000 0.000000
vn -1.000000 0.000000 0.000000
vn -1.000000 0.000000 0.000000
vn -0.614716 -0.349463 -0.707107
vn -0.614716 -0.349463 -0.707107
vn -0.614716 -0.349463 -0.707107
vn -0.522227 0.310864 0.794130
vn -0.522227 0.310864 0.794130
vn -0.522227 0.310864 0.794130
vn -0.522227 0.310864 0.794130
vn 0.000000 0.000000 1.000000
vn 0.000000 0.000000 1.000000
vn 0.000000 0.000000 1.000000
vn 0.000000 0.000000 1.000000
vn 0.000000 0.000000 1.000000
vn -0.543072 -0.308734 0.780869
vn -0.543072 -0.308734 0.780869
vn -0.543072 -0.308734 0.780869
vn -0.543072 -0.308734 0.780869
vn 0.234109 0.133090 -0.963058
vn 0.234109 0.133090 -0.963058
vn 0.234109 0.133090 -0.963058
vn 0.234109 0.133090 -0.963058
vn 0.494216 -0.869339 0.000000
vn 0.494216 -0.869339 0.000000
vn 0.494216 -0.869339 0.000000
vn 0.494216 -0.869339 0.000000
vn 0.494216 -0.869339 0.000000
vn 0.494216 -0.869339 0.000000
vn 0.494216 -0.869339 0.000000
vn 0.494216 -0.869339 0.000000
vn 0.618721 -0.368304 0.693928
vn 0.618721 -0.368304 0.693928
vn 0.618721 -0.368304 0.693928
vn -0.000000 0.000000 -1.000000
vn -0.000000 0.000000 -1.000000
vn -0.000000 0.000000 -1.000000
vn -0.000000 0.000000 -1.000000
vn -0.000000 0.000000 -1.000000
f 1/1/1 2/2/2 4/3/3
f 4/3/3 2/2/2 3/4/4
f 2/5/5 5/6/6 3/7/7
f 3/7/7 5/6/6 6/8/8
f 5/9/9 7/10/10 6/11/11
f 6/11/11 7/10/10 8/12/12
f 7/13/13 9/14/14 8/15/15
f 8/15/15 9/14/14 10/16/16
f 9/17/17 11/18/18 10/19/19
f 10/19/19 11/18/18 12/20/20
f 11/21/21 13/22/22 12/23/23
f 12/23/23 13/22/22 14/24/24
f 13/25/25 15/26/26 14/27/27
f 14/27/27 15/26/26 16/28/28
f 15/29/29 1/30/30 16/31/31
f 16/31/31 1/30/30 4/32/32
f 4/33/33 6/34/34 16/35/35
f 16/35/35 6/34/34 8/36/36
f 16/35/35 8/36/36 14/37/37
f 14/37/37 8/36/36 12/38/38
f 12/38/38 8/36/36 10/39/39
f 4/33/33 3/40/40 6/34/34
f 18/41/41 19/42/42 17/43/43
f 17/43/43 19/42/42 20/44/44
f 1/45/45 18/46/46 2/47/47
f 2/47/47 18/46/46 17/48/48
f 2/47/47 17/48/48 5/49/49
f 5/49/49 17/48/48 21/50/50
f 5/49/49 21/50/50 7/51/51
f 7/51/51 21/50/50 9/52/52
f 9/52/52 21/50/50 22/53/53
f 9/52/52 22/53/53 11/54/54
f 11/54/54 22/53/53 23/55/55
f 11/54/54 23/55/55 24/56/56
f 18/46/46 1/45/45 25/57/57
f 25/57/57 1/45/45 15/58/58
f 25/57/57 15/58/58 24/56/56
f 24/56/56 15/58/58 13/59/59
f 24/56/56 13/59/59 11/54/54
f 20/60/60 26/61/61 17/62/62
f 17/62/62 26/61/61 29/63/63
f 17/62/62 29/63/63 21/64/64
f 26/61/61 27/65/65 29/63/63
f 29/63/63 27/65/65 28/66/66
f 27/67/67 26/68/68 30/69/69
f 21/70/70 29/71/71 22/72/72
f 22/72/72 29/71/71 31/73/73
f 23/74/74 22/75/75 33/76/76
f 33/76/76 22/75/75 31/77/77
f 33/76/76 31/77/77 32/78/78
f 31/79/79 29/80/80 32/81/81
f 32/81/81 29/80/80 28/82/82
f 19/83/83 18/84/84 34/85/85
f 34/85/85 18/84/84 25/86/86
f 28/87/87 27/88/88 33/89/89
f 33/89/89 27/88/88 30/90/90
f 33/89/89 30/90/90 34/91/91
f 25/92/92 24/93/93 34/91/91
f 34/91/91 24/93/93 33/89/89
f 33/89/89 32/94/94 28/87/87
f 33/95/95 24/96/96 23/97/97
f 20/98/98 19/99/99 26/100/100
f 26/100/100 19/99/99 30/101/101
f 30/101/101 19/99/99 34/102/102
# 34 vertices
# 102 texture params
# 102 normals
# 64 facets

# 1 groups
