# WaveFront *.obj file (generated by Autodesk ATF)

g Body1

v 0.984165 -0.484165 0.550000
v 3.984165 -0.484165 0.550000
v 3.984165 -0.384165 0.550000
v 0.984165 -0.384165 0.550000
v 3.984165 -0.484165 0.450000
v 0.984165 -0.484165 0.450000
v 0.984165 -0.384165 0.450000
v 3.984165 -0.384165 0.450000
v 3.984165 -0.484165 0.650000
v 3.984165 -0.384165 0.650000
v 3.984165 -0.384165 0.700000
v 3.984165 -0.484165 0.700000
v 3.984165 -0.484165 0.800000
v 3.984165 -0.284165 0.800000
v 3.984165 -0.284165 0.200000
v 3.984165 -0.484165 0.200000
v 3.984165 -0.484165 0.300000
v 3.984165 -0.384165 0.300000
v 3.984165 -0.384165 0.350000
v 3.984165 -0.484165 0.350000
v 0.984165 -0.484165 0.650000
v 0.984165 -0.484165 0.700000
v 0.984165 -0.384165 0.700000
v 0.984165 -0.384165 0.650000
v 0.984165 -0.484165 0.800000
v 0.984165 -0.484165 0.350000
v 0.984165 -0.384165 0.350000
v 0.984165 -0.484165 0.300000
v 0.984165 -0.384165 0.300000
v 0.984165 -0.484165 0.200000
v 0.984165 -0.284165 0.200000
v 0.984165 -0.284165 0.800000
v 2.684165 -0.372071 1.004775
v 2.300000 -0.372071 1.004775
v 2.300000 -0.373814 1.024699
v 2.684165 -0.373814 1.024699
v 2.684165 -3.284165 0.750000
v 2.684165 -3.285908 0.769924
v 2.300000 -3.284165 0.750000
v 2.300000 -3.285908 0.769924
v 4.984165 -0.784165 0.250000
v 4.734165 -1.096665 -0.000000
v 4.734165 -0.284165 -0.000000
v 4.984165 -0.284165 0.250000
v 4.984165 -0.784165 0.500000
v 4.561650 -1.312309 0.922515
v 2.984165 -3.284165 0.750000
v 2.984165 -3.284165 -0.000000
v 0.234165 -0.284165 -0.000000
v -0.015835 -0.284165 0.250000
v -0.015835 -0.284165 0.500000
v 0.496631 -0.284165 1.012466
v 4.471699 -0.284165 1.012466
v 4.984165 -0.284165 0.500000
v 0.234165 -1.096665 -0.000000
v -0.015835 -0.784165 0.250000
v 1.984165 -3.284165 -0.000000
v -0.015835 -0.784165 0.500000
v 0.406680 -1.312309 0.922515
v 1.984165 -3.284165 0.750000
vt 0.000000 0.000000 0.000000
vt 3.000000 0.000000 0.000000
vt -0.000000 0.100000 0.000000
vt 3.000000 0.100000 0.000000
vt 0.000000 0.000000 0.000000
vt 3.000000 -0.000000 0.000000
vt -0.000000 0.100000 0.000000
vt 3.000000 0.100000 0.000000
vt -0.050000 -1.500000 0.000000
vt 0.050000 -1.500000 0.000000
vt -0.050000 1.500000 0.000000
vt 0.050000 1.500000 0.000000
vt -0.150000 0.200000 0.000000
vt -0.250000 0.200000 0.000000
vt -0.150000 0.100000 0.000000
vt -0.250000 0.100000 0.000000
vt -0.000000 0.000000 0.000000
vt -0.350000 0.100000 0.000000
vt -0.600000 -0.000000 0.000000
vt -0.450000 0.100000 0.000000
vt -0.500000 0.100000 0.000000
vt -0.350000 0.200000 0.000000
vt -0.450000 0.200000 0.000000
vt -0.500000 0.200000 0.000000
vt -0.600000 0.200000 0.000000
vt -0.100000 0.100000 0.000000
vt 0.000000 0.200000 0.000000
vt -0.100000 0.200000 0.000000
vt 0.050000 -1.500000 0.000000
vt 0.150000 -1.500000 0.000000
vt 0.050000 1.500000 0.000000
vt 0.150000 1.500000 0.000000
vt 0.000000 0.000000 0.000000
vt 3.000000 0.000000 0.000000
vt -0.000000 0.100000 0.000000
vt 3.000000 0.100000 0.000000
vt 0.000000 0.000000 0.000000
vt 3.000000 -0.000000 0.000000
vt -0.000000 0.100000 0.000000
vt 3.000000 0.100000 0.000000
vt -0.025000 -1.500000 0.000000
vt 0.025000 -1.500000 0.000000
vt -0.025000 1.500000 0.000000
vt 0.025000 1.500000 0.000000
vt 0.200000 -1.500000 0.000000
vt 0.300000 -1.500000 0.000000
vt 0.200000 1.500000 0.000000
vt 0.300000 1.500000 0.000000
vt 0.000000 0.000000 0.000000
vt 3.000000 0.000000 0.000000
vt -0.000000 0.100000 0.000000
vt 3.000000 0.100000 0.000000
vt 0.000000 0.000000 0.000000
vt 3.000000 -0.000000 0.000000
vt -0.000000 0.100000 0.000000
vt 3.000000 0.100000 0.000000
vt 0.025000 1.500000 0.000000
vt -0.025000 1.500000 0.000000
vt 0.025000 -1.500000 0.000000
vt -0.025000 -1.500000 0.000000
vt -0.350000 0.200000 0.000000
vt -0.450000 0.200000 0.000000
vt -0.350000 0.100000 0.000000
vt -0.450000 0.100000 0.000000
vt -0.600000 0.000000 0.000000
vt -0.500000 0.100000 0.000000
vt -0.600000 0.200000 0.000000
vt -0.500000 0.200000 0.000000
vt -0.250000 0.100000 0.000000
vt 0.000000 0.000000 0.000000
vt -0.150000 0.100000 0.000000
vt -0.100000 0.100000 0.000000
vt -0.000000 0.200000 0.000000
vt -0.100000 0.200000 0.000000
vt -0.150000 0.200000 0.000000
vt -0.250000 0.200000 0.000000
vt -0.200000 -1.500000 0.000000
vt -0.200000 1.500000 0.000000
vt -0.300000 -1.500000 0.000000
vt -0.300000 1.500000 0.000000
vt -3.000000 0.000000 0.000000
vt -0.000000 0.000000 0.000000
vt -3.000000 0.200000 0.000000
vt -0.000000 0.200000 0.000000
vt -3.000000 -0.000000 0.000000
vt -0.000000 0.000000 0.000000
vt -3.000000 0.200000 0.000000
vt 0.000000 0.200000 0.000000
vt -0.050000 1.500000 0.000000
vt -0.150000 1.500000 0.000000
vt -0.050000 -1.500000 0.000000
vt -0.150000 -1.500000 0.000000
vt 0.000000 0.000000 0.000000
vt 0.384165 -0.000000 0.000000
vt 0.000000 0.020000 0.000000
vt 0.384165 0.020000 0.000000
vt 0.000000 0.000000 0.000000
vt 2.923217 0.000000 0.000000
vt -0.000000 0.020000 0.000000
vt 2.923217 0.020000 0.000000
vt 0.000000 0.000000 0.000000
vt 0.384165 -0.000000 0.000000
vt 0.000000 0.020000 0.000000
vt 0.384165 0.020000 0.000000
vt 0.000000 0.000000 0.000000
vt 2.923217 0.000000 0.000000
vt -0.000000 0.020000 0.000000
vt 2.923217 0.020000 0.000000
vt -1.461609 -0.192082 0.000000
vt 1.461609 -0.192082 0.000000
vt -1.461609 0.192082 0.000000
vt 1.461609 0.192082 0.000000
vt -0.353553 0.812500 0.000000
vt -0.353553 0.000000 0.000000
vt -0.000000 0.500000 0.000000
vt 0.000000 0.000000 0.000000
vt 2.801367 0.000000 0.000000
vt 3.201562 0.250000 0.000000
vt 0.000000 0.000000 0.000000
vt -0.000000 0.750000 0.000000
vt 3.201562 0.500000 0.000000
vt 2.525208 0.922515 0.000000
vt 4.000000 0.200000 0.000000
vt 5.000000 0.500000 0.000000
vt 4.000000 0.800000 0.000000
vt 4.487534 1.012466 0.000000
vt 0.512466 1.012466 0.000000
vt 1.000000 0.200000 0.000000
vt 4.750000 0.000000 0.000000
vt 5.000000 0.250000 0.000000
vt 1.000000 0.800000 0.000000
vt -0.000000 0.500000 0.000000
vt -0.000000 0.250000 0.000000
vt 0.250000 0.000000 0.000000
vt -0.000000 0.812500 0.000000
vt -0.353553 0.500000 0.000000
vt -0.000000 0.000000 0.000000
vt -0.353553 -0.000000 0.000000
vt 1.500000 2.250000 0.000000
vt 0.687500 2.250000 0.000000
vt 1.500000 -2.250000 0.000000
vt 0.687500 -2.250000 0.000000
vt -1.500000 0.500000 0.000000
vt -1.500000 -0.500000 0.000000
vt -0.597527 1.028144 0.000000
vt -0.724736 0.000000 0.000000
vt -0.000000 0.500000 0.000000
vt -0.000000 0.000000 0.000000
vt 0.400195 -0.000000 0.000000
vt 3.201562 -0.000000 0.000000
vt 0.000000 0.250000 0.000000
vt -0.000000 0.500000 0.000000
vt 3.201562 0.750000 0.000000
vt 0.676354 0.922515 0.000000
vt 0.243973 1.028144 0.000000
vt -0.353553 0.500000 0.000000
vt 0.371183 0.000000 0.000000
vt -0.353553 0.000000 0.000000
vt 1.500000 0.200000 0.000000
vt -0.479388 2.077485 0.000000
vt -1.423217 0.200000 0.000000
vt -1.511460 1.987534 0.000000
vt -1.423217 -0.184165 0.000000
vt -1.511460 -1.987534 0.000000
vt -0.479388 -2.077485 0.000000
vt 1.500000 0.500000 0.000000
vt 1.500000 -0.500000 0.000000
vt 1.500000 -0.184165 0.000000
vt 0.000000 0.250000 0.000000
vt 0.500000 0.250000 0.000000
vt 0.000000 0.500000 0.000000
vt 0.500000 0.500000 0.000000
vt 0.500000 0.250000 0.000000
vt 0.500000 0.500000 0.000000
vt 0.000000 0.250000 0.000000
vt 0.000000 0.500000 0.000000
vt -0.000000 0.750000 0.000000
vt 0.000000 0.000000 0.000000
vt 0.315835 0.750000 0.000000
vt 1.000000 0.000000 0.000000
vt 0.700000 0.750000 0.000000
vt 1.000000 0.750000 0.000000
vn 0.000000 0.000000 1.000000
vn 0.000000 0.000000 1.000000
vn 0.000000 0.000000 1.000000
vn 0.000000 0.000000 1.000000
vn -0.000000 -0.000000 -1.000000
vn -0.000000 -0.000000 -1.000000
vn -0.000000 -0.000000 -1.000000
vn -0.000000 -0.000000 -1.000000
vn -0.000000 1.000000 -0.000000
vn -0.000000 1.000000 -0.000000
vn -0.000000 1.000000 -0.000000
vn -0.000000 1.000000 -0.000000
vn -1.000000 -0.000000 0.000000
vn -1.000000 -0.000000 0.000000
vn -1.000000 -0.000000 0.000000
vn -1.000000 -0.000000 0.000000
vn -1.000000 -0.000000 0.000000
vn -1.000000 -0.000000 0.000000
vn -1.000000 -0.000000 0.000000
vn -1.000000 -0.000000 0.000000
vn -1.000000 -0.000000 0.000000
vn -1.000000 -0.000000 0.000000
vn -1.000000 -0.000000 0.000000
vn -1.000000 -0.000000 0.000000
vn -1.000000 -0.000000 0.000000
vn -1.000000 -0.000000 0.000000
vn -1.000000 -0.000000 0.000000
vn -1.000000 -0.000000 0.000000
vn -0.000000 1.000000 -0.000000
vn -0.000000 1.000000 -0.000000
vn -0.000000 1.000000 -0.000000
vn -0.000000 1.000000 -0.000000
vn 0.000000 0.000000 1.000000
vn 0.000000 0.000000 1.000000
vn 0.000000 0.000000 1.000000
vn 0.000000 0.000000 1.000000
vn -0.000000 -0.000000 -1.000000
vn -0.000000 -0.000000 -1.000000
vn -0.000000 -0.000000 -1.000000
vn -0.000000 -0.000000 -1.000000
vn -0.000000 1.000000 -0.000000
vn -0.000000 1.000000 -0.000000
vn -0.000000 1.000000 -0.000000
vn -0.000000 1.000000 -0.000000
vn -0.000000 1.000000 -0.000000
vn -0.000000 1.000000 -0.000000
vn -0.000000 1.000000 -0.000000
vn -0.000000 1.000000 -0.000000
vn 0.000000 0.000000 1.000000
vn 0.000000 0.000000 1.000000
vn 0.000000 0.000000 1.000000
vn 0.000000 0.000000 1.000000
vn -0.000000 -0.000000 -1.000000
vn -0.000000 -0.000000 -1.000000
vn -0.000000 -0.000000 -1.000000
vn -0.000000 -0.000000 -1.000000
vn -0.000000 1.000000 -0.000000
vn -0.000000 1.000000 -0.000000
vn -0.000000 1.000000 -0.000000
vn -0.000000 1.000000 -0.000000
vn 1.000000 0.000000 -0.000000
vn 1.000000 0.000000 -0.000000
vn 1.000000 0.000000 -0.000000
vn 1.000000 0.000000 -0.000000
vn 1.000000 0.000000 -0.000000
vn 1.000000 0.000000 -0.000000
vn 1.000000 0.000000 -0.000000
vn 1.000000 0.000000 -0.000000
vn 1.000000 0.000000 -0.000000
vn 1.000000 0.000000 -0.000000
vn 1.000000 0.000000 -0.000000
vn 1.000000 0.000000 -0.000000
vn 1.000000 0.000000 -0.000000
vn 1.000000 0.000000 -0.000000
vn 1.000000 0.000000 -0.000000
vn 1.000000 0.000000 -0.000000
vn -0.000000 1.000000 -0.000000
vn -0.000000 1.000000 -0.000000
vn -0.000000 1.000000 -0.000000
vn -0.000000 1.000000 -0.000000
vn -0.000000 -0.000000 -1.000000
vn -0.000000 -0.000000 -1.000000
vn -0.000000 -0.000000 -1.000000
vn -0.000000 -0.000000 -1.000000
vn 0.000000 0.000000 1.000000
vn 0.000000 0.000000 1.000000
vn 0.000000 0.000000 1.000000
vn 0.000000 0.000000 1.000000
vn -0.000000 1.000000 -0.000000
vn -0.000000 1.000000 -0.000000
vn -0.000000 1.000000 -0.000000
vn -0.000000 1.000000 -0.000000
vn -0.000000 0.996195 0.087156
vn -0.000000 0.996195 0.087156
vn -0.000000 0.996195 0.087156
vn -0.000000 0.996195 0.087156
vn 1.000000 0.000000 -0.000000
vn 1.000000 0.000000 -0.000000
vn 1.000000 0.000000 -0.000000
vn 1.000000 0.000000 -0.000000
vn 0.000000 -0.996195 -0.087156
vn 0.000000 -0.996195 -0.087156
vn 0.000000 -0.996195 -0.087156
vn 0.000000 -0.996195 -0.087156
vn -1.000000 -0.000000 0.000000
vn -1.000000 -0.000000 0.000000
vn -1.000000 -0.000000 0.000000
vn -1.000000 -0.000000 0.000000
vn 0.000000 -0.087156 0.996195
vn 0.000000 -0.087156 0.996195
vn 0.000000 -0.087156 0.996195
vn 0.000000 -0.087156 0.996195
vn 0.707107 0.000000 -0.707107
vn 0.707107 0.000000 -0.707107
vn 0.707107 0.000000 -0.707107
vn 0.707107 0.000000 -0.707107
vn 0.780869 -0.624695 -0.000000
vn 0.780869 -0.624695 -0.000000
vn 0.780869 -0.624695 -0.000000
vn 0.780869 -0.624695 -0.000000
vn 0.780869 -0.624695 -0.000000
vn 0.780869 -0.624695 -0.000000
vn -0.000000 1.000000 -0.000000
vn -0.000000 1.000000 -0.000000
vn -0.000000 1.000000 -0.000000
vn -0.000000 1.000000 -0.000000
vn -0.000000 1.000000 -0.000000
vn -0.000000 1.000000 -0.000000
vn -0.000000 1.000000 -0.000000
vn -0.000000 1.000000 -0.000000
vn -0.000000 1.000000 -0.000000
vn -0.000000 1.000000 -0.000000
vn -0.000000 1.000000 -0.000000
vn -0.000000 1.000000 -0.000000
vn -0.707107 -0.000000 -0.707107
vn -0.707107 -0.000000 -0.707107
vn -0.707107 -0.000000 -0.707107
vn -0.707107 -0.000000 -0.707107
vn -0.000000 -0.000000 -1.000000
vn -0.000000 -0.000000 -1.000000
vn -0.000000 -0.000000 -1.000000
vn -0.000000 -0.000000 -1.000000
vn -0.000000 -0.000000 -1.000000
vn -0.000000 -0.000000 -1.000000
vn -0.707107 -0.000000 0.707107
vn -0.707107 -0.000000 0.707107
vn -0.707107 -0.000000 0.707107
vn -0.707107 -0.000000 0.707107
vn -0.780869 -0.624695 0.000000
vn -0.780869 -0.624695 0.000000
vn -0.780869 -0.624695 0.000000
vn -0.780869 -0.624695 0.000000
vn -0.780869 -0.624695 0.000000
vn -0.780869 -0.624695 0.000000
vn 0.707107 0.000000 0.707107
vn 0.707107 0.000000 0.707107
vn 0.707107 0.000000 0.707107
vn 0.707107 0.000000 0.707107
vn 0.000000 -0.087156 0.996195
vn 0.000000 -0.087156 0.996195
vn 0.000000 -0.087156 0.996195
vn 0.000000 -0.087156 0.996195
vn 0.000000 -0.087156 0.996195
vn 0.000000 -0.087156 0.996195
vn 0.000000 -0.087156 0.996195
vn 0.000000 -0.087156 0.996195
vn 0.000000 -0.087156 0.996195
vn 0.000000 -0.087156 0.996195
vn -1.000000 -0.000000 0.000000
vn -1.000000 -0.000000 0.000000
vn -1.000000 -0.000000 0.000000
vn -1.000000 -0.000000 0.000000
vn 1.000000 0.000000 -0.000000
vn 1.000000 0.000000 -0.000000
vn 1.000000 0.000000 -0.000000
vn 1.000000 0.000000 -0.000000
vn 0.000000 -1.000000 0.000000
vn 0.000000 -1.000000 0.000000
vn 0.000000 -1.000000 0.000000
vn 0.000000 -1.000000 0.000000
vn 0.000000 -1.000000 0.000000
vn 0.000000 -1.000000 0.000000
f 1/1/1 2/2/2 4/3/3
f 4/3/3 2/2/2 3/4/4
f 5/5/5 6/6/6 8/7/7
f 8/7/7 6/6/6 7/8/8
f 7/9/9 4/10/10 8/11/11
f 8/11/11 4/10/10 3/12/12
f 20/13/13 5/14/14 19/15/15
f 19/15/15 5/14/14 8/16/16
f 19/15/15 8/16/16 15/17/17
f 15/17/17 8/16/16 3/18/18
f 15/17/17 3/18/18 14/19/19
f 14/19/19 3/18/18 10/20/20
f 14/19/19 10/20/20 11/21/21
f 2/22/22 9/23/23 3/18/18
f 3/18/18 9/23/23 10/20/20
f 12/24/24 13/25/25 11/21/21
f 11/21/21 13/25/25 14/19/19
f 19/15/15 15/17/17 18/26/26
f 18/26/26 15/17/17 16/27/27
f 18/26/26 16/27/27 17/28/28
f 1/29/29 21/30/30 2/31/31
f 2/31/31 21/30/30 9/32/32
f 22/33/33 12/34/34 23/35/35
f 23/35/35 12/34/34 11/36/36
f 9/37/37 21/38/38 10/39/39
f 10/39/39 21/38/38 24/40/40
f 24/41/41 23/42/42 10/43/43
f 10/43/43 23/42/42 11/44/44
f 22/45/45 25/46/46 12/47/47
f 12/47/47 25/46/46 13/48/48
f 26/49/49 20/50/50 27/51/51
f 27/51/51 20/50/50 19/52/52
f 17/53/53 28/54/54 18/55/55
f 18/55/55 28/54/54 29/56/56
f 19/57/57 18/58/58 27/59/59
f 27/59/59 18/58/58 29/60/60
f 6/61/61 26/62/62 7/63/63
f 7/63/63 26/62/62 27/64/64
f 7/63/63 27/64/64 31/65/65
f 31/65/65 27/64/64 29/66/66
f 31/65/65 29/66/66 30/67/67
f 30/67/67 29/66/66 28/68/68
f 7/63/63 31/65/65 4/69/69
f 4/69/69 31/65/65 32/70/70
f 4/69/69 32/70/70 24/71/71
f 24/71/71 32/70/70 23/72/72
f 23/72/72 32/70/70 25/73/73
f 23/72/72 25/73/73 22/74/74
f 21/75/75 1/76/76 24/71/71
f 24/71/71 1/76/76 4/69/69
f 28/77/77 17/78/78 30/79/79
f 30/79/79 17/78/78 16/80/80
f 32/81/81 14/82/82 25/83/83
f 25/83/83 14/82/82 13/84/84
f 15/85/85 31/86/86 16/87/87
f 16/87/87 31/86/86 30/88/88
f 5/89/89 20/90/90 6/91/91
f 6/91/91 20/90/90 26/92/92
f 33/93/93 34/94/94 36/95/95
f 36/95/95 34/94/94 35/96/96
f 37/97/97 33/98/98 38/99/99
f 38/99/99 33/98/98 36/100/100
f 39/101/101 37/102/102 40/103/103
f 40/103/103 37/102/102 38/104/104
f 34/105/105 39/106/106 35/107/107
f 35/107/107 39/106/106 40/108/108
f 35/109/109 40/110/110 36/111/111
f 36/111/111 40/110/110 38/112/112
f 42/113/113 43/114/114 41/115/115
f 41/115/115 43/114/114 44/116/116
f 42/117/117 41/118/118 48/119/119
f 48/119/119 41/118/118 47/120/120
f 47/120/120 41/118/118 45/121/121
f 47/120/120 45/121/121 46/122/122
f 31/123/123 51/124/124 32/125/125
f 32/125/125 51/124/124 52/126/126
f 32/125/125 52/126/126 53/127/127
f 15/128/128 49/129/129 31/123/123
f 31/123/123 49/129/129 50/130/130
f 31/123/123 50/130/130 51/124/124
f 14/131/131 54/132/132 15/128/128
f 15/128/128 54/132/132 44/133/133
f 15/128/128 44/133/133 43/134/134
f 54/132/132 14/131/131 53/127/127
f 53/127/127 14/131/131 32/125/125
f 43/134/134 49/129/129 15/128/128
f 55/135/135 56/136/136 49/137/137
f 49/137/137 56/136/136 50/138/138
f 43/139/139 42/140/140 49/141/141
f 49/141/141 42/140/140 55/142/142
f 55/142/142 42/140/140 48/143/143
f 55/142/142 48/143/143 57/144/144
f 59/145/145 52/146/146 58/147/147
f 58/147/147 52/146/146 51/148/148
f 55/149/149 57/150/150 56/151/151
f 56/151/151 57/150/150 58/152/152
f 58/152/152 57/150/150 60/153/153
f 58/152/152 60/153/153 59/154/154
f 46/155/155 45/156/156 53/157/157
f 53/157/157 45/156/156 54/158/158
f 37/159/159 46/160/160 33/161/161
f 33/161/161 46/160/160 53/162/162
f 33/161/161 53/162/162 34/163/163
f 34/163/163 53/162/162 52/164/164
f 34/163/163 52/164/164 59/165/165
f 37/159/159 47/166/166 46/160/160
f 60/167/167 39/168/168 59/165/165
f 59/165/165 39/168/168 34/163/163
f 50/169/169 56/170/170 51/171/171
f 51/171/171 56/170/170 58/172/172
f 44/173/173 54/174/174 41/175/175
f 41/175/175 54/174/174 45/176/176
f 60/177/177 57/178/178 39/179/179
f 39/179/179 57/178/178 48/180/180
f 39/179/179 48/180/180 37/181/181
f 37/181/181 48/180/180 47/182/182
# 60 vertices
# 182 texture params
# 182 normals
# 116 facets

# 1 groups
